<svg xmlns="http://www.w3.org/2000/svg" viewBox="0 0 680 378" width="680" height="378">
  <rect width="680" height="378" rx="12" fill="#f8f8fa"/>
  <text x="340" y="35" fill="#1d1d1f" font-family="sans-serif" font-size="18" font-weight="600" text-anchor="middle">Cloud Security Layers</text>
  <rect x="20" y="60" width="640" height="56" rx="10" fill="#0071e3" opacity="0.08"/>
  <rect x="20" y="60" width="640" height="56" rx="10" fill="none" stroke="#0071e3" stroke-width="1.5" opacity="0.4"/>
  <text x="36" y="82" fill="#0071e3" font-family="sans-serif" font-size="12" font-weight="700" text-transform="uppercase">Identity</text>
  <text x="36" y="102" fill="#515154" font-family="sans-serif" font-size="12">IAM Users · Roles · MFA · Least Privilege</text>
  <line x1="340" y1="116" x2="340" y2="132" stroke="#c7c7cc" stroke-width="1" stroke-dasharray="3,3"/>
  <rect x="20" y="132" width="640" height="56" rx="10" fill="#e63946" opacity="0.08"/>
  <rect x="20" y="132" width="640" height="56" rx="10" fill="none" stroke="#e63946" stroke-width="1.5" opacity="0.4"/>
  <text x="36" y="154" fill="#e63946" font-family="sans-serif" font-size="12" font-weight="700" text-transform="uppercase">Network</text>
  <text x="36" y="174" fill="#515154" font-family="sans-serif" font-size="12">VPC · Security Groups · NACLs · Private Subnets</text>
  <line x1="340" y1="188" x2="340" y2="204" stroke="#c7c7cc" stroke-width="1" stroke-dasharray="3,3"/>
  <rect x="20" y="204" width="640" height="56" rx="10" fill="#28a745" opacity="0.08"/>
  <rect x="20" y="204" width="640" height="56" rx="10" fill="none" stroke="#28a745" stroke-width="1.5" opacity="0.4"/>
  <text x="36" y="226" fill="#28a745" font-family="sans-serif" font-size="12" font-weight="700" text-transform="uppercase">Data</text>
  <text x="36" y="246" fill="#515154" font-family="sans-serif" font-size="12">Encryption at Rest · Encryption in Transit · Key Management</text>
  <line x1="340" y1="260" x2="340" y2="276" stroke="#c7c7cc" stroke-width="1" stroke-dasharray="3,3"/>
  <rect x="20" y="276" width="640" height="56" rx="10" fill="#6f42c1" opacity="0.08"/>
  <rect x="20" y="276" width="640" height="56" rx="10" fill="none" stroke="#6f42c1" stroke-width="1.5" opacity="0.4"/>
  <text x="36" y="298" fill="#6f42c1" font-family="sans-serif" font-size="12" font-weight="700" text-transform="uppercase">Monitoring</text>
  <text x="36" y="318" fill="#515154" font-family="sans-serif" font-size="12">CloudTrail · CloudWatch · Alerts · Audit Logs</text>
</svg>